<?xml version="1.0" encoding="UTF-8" standalone="no"?>
<!-- Created with Inkscape (http://www.inkscape.org/) -->

<svg
   xmlns:dc="http://purl.org/dc/elements/1.1/"
   xmlns:cc="http://creativecommons.org/ns#"
   xmlns:rdf="http://www.w3.org/1999/02/22-rdf-syntax-ns#"
   xmlns:svg="http://www.w3.org/2000/svg"
   xmlns="http://www.w3.org/2000/svg"
   xmlns:sodipodi="http://sodipodi.sourceforge.net/DTD/sodipodi-0.dtd"
   xmlns:inkscape="http://www.inkscape.org/namespaces/inkscape"
   width="1000"
   height="854.42999"
   viewBox="0 0 264.58333 226.06794"
   version="1.1"
   id="svg1470"
   inkscape:version="0.92.2 (5c3e80d, 2017-08-06)"
   sodipodi:docname="Grand Theft Auto 2001.svg">
  <defs
     id="defs1464">
    <linearGradient
       id="linearGradient4596">
      <stop
         style="stop-color:#c7d1bd;stop-opacity:1;"
         offset="0"
         id="stop4598" />
      <stop
         style="stop-color:#638e30;stop-opacity:1;"
         offset="1"
         id="stop4600" />
    </linearGradient>
  </defs>
  <sodipodi:namedview
     id="base"
     pagecolor="#ffffff"
     bordercolor="#666666"
     borderopacity="1.0"
     inkscape:pageopacity="0.0"
     inkscape:pageshadow="2"
     inkscape:zoom="0.49497475"
     inkscape:cx="629.66889"
     inkscape:cy="281.82695"
     inkscape:document-units="px"
     inkscape:current-layer="layer1"
     showgrid="false"
     units="px"
     inkscape:window-width="1360"
     inkscape:window-height="706"
     inkscape:window-x="-8"
     inkscape:window-y="-8"
     inkscape:window-maximized="1" />
  <metadata
     id="metadata1467">
    <rdf:RDF>
      <cc:Work
         rdf:about="">
        <dc:format>image/svg+xml</dc:format>
        <dc:type
           rdf:resource="http://purl.org/dc/dcmitype/StillImage" />
        <dc:title></dc:title>
      </cc:Work>
    </rdf:RDF>
  </metadata>
  <g
     inkscape:label="Layer 1"
     inkscape:groupmode="layer"
     id="layer1"
     transform="translate(0,-70.932059)">
    <g
       id="g2714"
       transform="matrix(0.72462314,0,0,0.72462314,3.0967889e-4,70.931988)">
      <path
         id="path2670"
         d="m 271.084,0.172 c 15.4,-0.2 30.7,-0.1 46,-0.1 0,39.5 0,79 0,118.5 -47.7,0.1 -95.4,0 -143.1,0 -1.5,0 -3,0.1 -4.5,0.3 1.8,2.1 4.3,3.3 6.6,4.9 1.9,-1.2 3.6,-3.3 6,-3.2 14.7,0 29.4,0 44.1,0 3.5,-0.1 6.101,2.8 8.7,4.7 4,-2.2 8.3,-5 13.101,-4.7 28.899,0 57.699,0 86.6,0 0,1.8 0,3.7 0,5.5 10.2,0 20.3,0 30.5,0 0,24.8 0,49.6 0,74.5 -0.7,7.1 -4.8,14.4 -11.5,17.5 -3.3,1.7 -6.9,3.1 -10.5,3.5 -10,0 -20,0 -30,0 -7.4,-0.3 -15.5,-2.9 -19.5,-9.5 -5,-7.7 -3.7,-17.3 -3.5,-26 -6.1,0 -12.1,0 -18.2,0 -0.2,8.9 0.101,17.8 -0.1,26.8 9.3,1.101 18.399,7.8 19.5,17.601 0.2,21.1 0,42.1 0,63.199 -0.4,9.4 -8.9,17.2 -18.101,18.2 -11.399,0 -22.8,-0.1 -34.199,0 -5,0 -9.801,-2.1 -13.801,-5 -3.899,2.601 -8.199,4.9 -13,4.9 -11.699,0.1 -23.399,0 -35.2,0.1 -5.9,0.101 -11.3,-2.899 -15.7,-6.7 -4.6,4.301 -10.8,7.101 -17.2,6.7 -11.7,-0.399 -23.5,0.8 -35.1,-0.8 -4.2,1.2 -8.6,0.7 -12.9,0.8 -14.7,0 -29.4,-0.1 -44,0 -9.5,0.601 -18.7,-6.3 -20.9,-15.399 -0.2,-21 0,-42 -0.1,-63 -0.3,-5.5 2.5,-10.7 6.5,-14.301 4.3,-4.3 10.4,-5.699 16.2,-6.8 -4,-4.2 -6,-10 -5.7,-15.7 0,-10 0,-20 0,-30 -1.7,-0.1 -3.3,-0.1 -5,-0.1 0,-8.6 0,-17.2 0,-25.7 -14.3,0 -28.7,-0.1 -43,0 0,-31.1 0,-62.2 0,-93.3 0.1,-4.3 -0.5,-8.7 1,-12.9 3,-8 10.5,-14.2 19,-15.3 31,-0.1 62,0 93,0 5.6,-0.2 11,2.4 15,6.3 4.9,-5.1 12.2,-6.6 19,-6.4 10.2,0.2 20.5,-0.4 30.7,0.6 2.7,0.9 5.5,-0.5 8.2,-0.3 14.699,0 29.399,0 44.1,0 6.9,-0.2 14,1.3 19.4,5.7 5.5,-5.8 14.1,-6.6 21.6,-6 0,-6.4 0,-12.8 0,-19.1 z"
         inkscape:connector-curvature="0"
         style="fill:#010101;stroke:#010101;stroke-width:0.0938" />
      <path
         id="path2672"
         d="m 283.384,12.372 c 7.5,-0.6 15.101,-0.2 22.7,-0.3 0,31.3 0,62.7 0,94 -13.7,0 -27.3,0.1 -40.9,0 -5.1,-0.3 -11.1,-3.7 -11.1,-9.4 0,-18.7 0,-37.5 0,-56.2 0.2,-5.6 5.9,-9 11,-9.3 6,-0.3 12.1,0 18.2,-0.1 0.1,-6.2 0,-12.5 0.1,-18.7 z"
         inkscape:connector-curvature="0"
         style="fill:#ffffff;stroke:#ffffff;stroke-width:0.0938" />
      <path
         id="path2674"
         d="m 11.684,40.572 c 0.1,-6 6.3,-9.4 11.7,-9.4 13.2,-0.2 26.4,0 39.6,-0.1 0.2,29.8 0,59.7 0.1,89.6 0.2,5.1 -5.4,8.4 -10,8.9 -13.8,0.1 -27.6,0 -41.5,0 0.1,-5.9 -0.3,-11.8 0.3,-17.7 9.7,-0.1 19.5,0 29.2,-0.1 0,-1.9 0,-3.7 0,-5.6 -6.5,-0.4 -13,0.3 -19.4,-0.4 -5.2,-0.3 -10.5,-4.6 -10.1,-10.2 0,-18.3 -0.1,-36.7 0.1,-55 z"
         inkscape:connector-curvature="0"
         style="fill:#ffffff;stroke:#ffffff;stroke-width:0.0938" />
      <path
         id="path2676"
         d="m 72.484,31.172 c 12.5,-0.3 25.1,0 37.6,-0.1 4.6,-0.2 9.8,0.9 12.5,5 2.1,2.7 1.4,6.3 1.5,9.5 -0.1,6.3 0.2,12.6 -0.1,18.8 -0.5,2.8 -4,3.1 -6,4.2 2.3,1.1 6.1,1.7 6.1,5 0.1,12.8 0,25.5 0,38.3 6.5,0 13,-0.1 19.4,0 0.2,7 0,14.1 0.1,21.2 6.2,0.1 12.4,-0.1 18.5,0 5.2,0.1 10.7,4.1 10.7,9.7 0.1,22.3 0,44.7 0,67 -7.5,0.1 -15.1,0.1 -22.7,0 0,-19.601 0.1,-39.2 0,-58.7 -2.2,0 -4.3,0 -6.5,0 0,19.6 0,39.2 0,58.7 -7.6,0.1 -15.2,0.1 -22.7,0 -0.1,-26.7 -0.1,-53.5 -0.1,-80.2 -4.6,-0.3 -9.8,1 -14,-1.6 -2.7,-1.5 -5.4,-4.1 -5.2,-7.3 0,-14.4 0,-28.7 0,-43.1 -2.2,0 -4.5,0 -6.7,0 -0.1,9.4 0,18.8 -0.1,28.2 -7.4,0.5 -15,0.5 -22.4,0 0,-24.8 -0.2,-49.7 0.1,-74.6 z"
         inkscape:connector-curvature="0"
         style="fill:#ffffff;stroke:#ffffff;stroke-width:0.0938" />
      <path
         id="path2678"
         d="m 133.084,40.472 c -0.4,-5.8 6.2,-9.3 11.3,-9.4 9.5,-0.1 19,0 28.6,0 5.4,0 11.6,3.6 11.8,9.6 0.1,21.8 0,43.6 0,65.4 -13.2,0 -26.5,0 -39.7,0 -4.9,0 -10.8,-2.5 -11.9,-7.6 -0.2,-9.7 0,-19.3 -0.1,-29 -0.7,-5.1 4.7,-8.5 9,-9.7 6.7,-0.5 13.3,0 20,-0.2 0,-3.5 0,-7 0,-10.5 -2.3,0 -4.6,0 -6.9,0 -0.1,1.5 -0.1,3 -0.2,4.5 -7.3,0 -14.6,0 -21.9,0 0,-4.4 0,-8.7 0,-13.1 z"
         inkscape:connector-curvature="0"
         style="fill:#ffffff;stroke:#ffffff;stroke-width:0.0938" />
      <path
         id="path2680"
         d="m 193.684,31.172 c 7.4,-0.2 14.9,-0.1 22.301,-0.1 0.1,1.8 0.1,3.6 0.1,5.4 5.1,-4 11.7,-5.3 18,-5.3 4.6,0.1 9.9,2.8 10.9,7.5 0.3,22.5 -0.2,44.9 0.399,67.4 -7.5,0 -15,0 -22.5,0 0.2,-19 0.3,-37.9 0.101,-56.9 -2.301,-0.1 -4.601,-0.1 -6.9,-0.1 -0.1,19 0.1,38 0,57 -7.5,0 -15,0 -22.5,0 -0.001,-25 -0.101,-50 0.099,-74.9 z"
         inkscape:connector-curvature="0"
         style="fill:#ffffff;stroke:#ffffff;stroke-width:0.0938" />
      <path
         id="path2682"
         d="m 34.084,49.072 c 2.3,0 4.5,0 6.7,0 0.1,13 0,26 0.1,39 -2.3,0 -4.5,0 -6.8,0 0,-13 0,-26 0,-39 z"
         inkscape:connector-curvature="0"
         style="fill:#010101;stroke:#010101;stroke-width:0.0938" />
      <path
         id="path2684"
         d="m 94.784,49.072 c 2.3,0 4.5,0 6.8,0 0,3.5 0,7 0,10.5 -2.3,0 -4.5,0 -6.8,0 0.1,-3.5 0.1,-7 0,-10.5 z"
         inkscape:connector-curvature="0"
         style="fill:#010101;stroke:#010101;stroke-width:0.0938" />
      <path
         id="path2686"
         d="m 276.584,49.072 c 2.3,0 4.5,0 6.7,0 0,13 0.1,26 0,39 -2.2,0 -4.4,0 -6.7,0 0,-13 0,-26 0,-39 z"
         inkscape:connector-curvature="0"
         style="fill:#010101;stroke:#010101;stroke-width:0.0938" />
      <path
         id="path2688"
         d="m 155.284,77.572 c 2.3,0 4.5,0 6.8,0 0,3.5 0,7 0,10.5 -2.3,0 -4.5,0 -6.7,0 0,-3.5 -0.1,-7 -0.1,-10.5 z"
         inkscape:connector-curvature="0"
         style="fill:#010101;stroke:#010101;stroke-width:0.0938" />
      <path
         id="path2690"
         d="m 72.584,114.872 c 6.8,0 13.6,-0.1 20.5,0 0,2.9 0,5.8 0,8.7 -6.8,0 -13.7,0 -20.5,0 0,-2.9 0,-5.8 0,-8.7 z"
         inkscape:connector-curvature="0"
         style="fill:#ffffff;stroke:#ffffff;stroke-width:0.0938" />
      <path
         id="path2692"
         d="m 60.384,133.372 c 7.5,-0.6 14.9,-0.2 22.4,-0.2 0,1.5 0.1,3.1 0.1,4.6 9.7,0.1 19.5,0.1 29.2,0 0,5.9 0,11.9 0,17.8 -9.8,0 -19.5,0 -29.3,0 0.1,11.5 0.1,23 0,34.5 2.3,0 4.5,0 6.8,0 0,-9.5 0,-19 0,-28.5 7.5,0 15,0 22.5,0 0,12.7 0.1,25.4 -0.1,38 0.1,5.8 -5.3,10.2 -10.8,10 -10.4,0 -20.8,0.1 -31.1,0 -5.6,-0.3 -9.8,-5.6 -9.8,-11 0,-14.3 0.1,-28.6 0,-43 -2,0 -4,0 -6,-0.1 0.1,-5.9 0.1,-11.7 0,-17.6 2,0 4,-0.1 6,-0.1 0,-1.5 0.1,-3 0.1,-4.4 z"
         inkscape:connector-curvature="0"
         style="fill:#ffffff;stroke:#ffffff;stroke-width:0.0938" />
      <path
         id="path2694"
         d="m 179.784,142.472 c -0.3,-5.4 5.399,-9.1 10.3,-9.3 10,-0.2 20,-0.1 30,-0.1 5.4,-0.1 11.5,3.6 11.5,9.4 0,12.4 0,24.7 0,37.1 -9.8,0 -19.5,-0.1 -29.3,0 0,3.5 0.1,7 0.1,10.5 2.2,0 4.4,0 6.601,0 0.1,-1.5 0.1,-3.1 0.199,-4.7 7.4,-0.1 14.9,0 22.4,-0.1 -0.2,5.399 0.4,10.899 -0.4,16.2 -1,5.6 -6.8,8.6 -12.1,8.399 -9.6,-0.1 -19.3,0.101 -29,-0.2 -5.3,-0.199 -10.3,-4.5 -10.2,-10 -0.1,-19.099 0,-38.099 -0.1,-57.199 z"
         inkscape:connector-curvature="0"
         style="fill:#ffffff;stroke:#ffffff;stroke-width:0.0938" />
      <path
         id="path2696"
         d="m 238.584,142.472 c -0.2,-5.4 5.5,-9.1 10.5,-9.4 13.7,0 27.5,0 41.3,0 -0.1,6 0,12 -0.1,18 -9.7,0 -19.4,0 -29.2,0 0,1.8 0,3.6 0,5.4 9.8,0.2 19.5,0 29.3,0.1 -0.1,6 -0.1,12 0,18 -9.8,0.1 -19.5,-0.1 -29.3,0 -0.1,11.8 0,23.5 0,35.2 -7.5,0.1 -15,0.1 -22.5,0 0,-22.4 0,-44.8 0,-67.3 z"
         inkscape:connector-curvature="0"
         style="fill:#ffffff;stroke:#ffffff;stroke-width:0.0938" />
      <path
         id="path2698"
         d="m 301.184,133.072 c 7.5,0.1 15.101,0 22.601,0 0,1.6 0.1,3.2 0.1,4.7 9.7,0.1 19.5,0.1 29.2,0 0,5.9 0,11.9 0,17.8 -9.7,0 -19.5,-0.1 -29.2,0 -0.1,11.5 -0.1,23 0,34.5 2.2,0 4.5,0 6.7,0 0,-9.5 0,-19 0,-28.5 7.5,0 15,0 22.5,0 0,13 0,26 0,39.1 -0.1,4.801 -4.9,7.801 -9.1,8.801 -10,0.3 -20,-0.2 -30,0.3 -4.4,0.2 -9.2,-1.601 -11.4,-5.601 -1.6,-2.899 -1.5,-6.399 -1.5,-9.6 0,-13 -0.1,-26 0.1,-39 -2,0 -3.899,0 -5.899,-0.1 0.1,-5.9 0.1,-11.7 0,-17.6 1.899,-0.1 3.8,-0.1 5.7,-0.1 0.098,-1.6 0.098,-3.2 0.198,-4.7 z"
         inkscape:connector-curvature="0"
         style="fill:#ffffff;stroke:#ffffff;stroke-width:0.0938" />
      <path
         id="path2700"
         d="m 202.284,151.072 c 2.3,0 4.5,0 6.8,0 0,3.5 0,7 0,10.5 -2.3,0 -4.5,0 -6.8,0 0,-3.5 0,-7 0,-10.5 z"
         inkscape:connector-curvature="0"
         style="fill:#010101;stroke:#010101;stroke-width:0.0938" />
      <path
         id="path2702"
         d="m 43.184,231.671 c 1.4,-5 6.9,-7.8 11.9,-7.6 9.6,0.1 19.3,-0.1 29,0.1 4.8,0.2 10.3,3.4 10.5,8.7 0,22.101 0,44.3 0,66.4 -13.5,0.1 -27,0.1 -40.4,0 -4.4,-0.2 -9.5,-2.4 -11,-6.8 -0.2,-10.9 -0.2,-21.801 0,-32.7 2.1,-3.9 6.2,-7.2 10.8,-7.2 6.1,0 12.3,0.1 18.4,0 -0.1,-3.5 0,-7 -0.1,-10.5 -2.2,0 -4.4,0 -6.6,0 -0.1,1.5 -0.1,3 -0.2,4.5 -7.4,0 -14.9,0 -22.4,0 0.1,-4.999 -0.2,-9.9 0.1,-14.9 z"
         inkscape:connector-curvature="0"
         style="fill:#ffffff;stroke:#ffffff;stroke-width:0.0938" />
      <path
         id="path2704"
         d="m 104.084,224.072 c 7.3,0 14.7,0 22,0 0,19 -0.1,38 0,57 2.3,0 4.6,0 6.8,0.1 -0.1,-19 0,-38 0,-57.1 7.4,0 14.8,0 22.2,0 -0.1,22.8 0.1,45.6 -0.1,68.4 -1.6,4.699 -7.2,6.899 -11.9,6.6 -9.6,-0.1 -19.3,0.1 -29,0 -4.8,-0.4 -10.7,-3.9 -10,-9.4 0,-21.9 0,-43.7 0,-65.6 z"
         inkscape:connector-curvature="0"
         style="fill:#ffffff;stroke:#ffffff;stroke-width:0.0938" />
      <path
         id="path2706"
         d="m 168.184,224.072 c 7.4,0 14.9,0 22.3,0 0.1,1.6 0.1,3.2 0.199,4.7 9.7,0 19.4,0.1 29.101,0 -0.3,6 -0.2,12 -0.2,18 -9.6,0.1 -19.3,0 -29,0.1 -0.1,11.4 0.1,22.8 -0.1,34.2 2.399,0 4.8,0 7.199,0.1 -0.199,-9.5 0,-19 -0.1,-28.6 7.3,0 14.7,0 22,0 -0.1,12.3 0.1,24.6 0,36.9 0.1,5.899 -6.1,9.8 -11.4,9.6 -9.699,0 -19.399,0 -29.1,0 -4.4,0 -9.2,-2.4 -10.9,-6.7 -0.3,-15.1 0,-30.3 -0.1,-45.5 -1.9,0 -3.8,-0.1 -5.7,-0.1 0,-6 -0.1,-12 0,-17.9 1.9,0 3.7,0 5.6,0 0.101,-1.6 0.101,-3.201 0.201,-4.8 z"
         inkscape:connector-curvature="0"
         style="fill:#ffffff;stroke:#ffffff;stroke-width:0.0938" />
      <path
         id="path2708"
         d="m 236.384,224.572 c 2.2,-0.7 4.5,-0.5 6.7,-0.5 9,0.1 18,-0.1 27,0 5,0.3 10.6,4 10.5,9.4 0,17.699 0,35.399 0,53.1 0,2.5 -0.1,5 -1.3,7.2 -2.3,3.7 -6.9,5.5 -11.2,5.3 -9.6,0 -19.3,0.1 -29,0 -4.9,-0.4 -10.5,-4 -10.2,-9.4 -0.1,-18.699 0,-37.5 -0.1,-56.199 -0.3,-4.401 3.7,-7.701 7.6,-8.901 z"
         inkscape:connector-curvature="0"
         style="fill:#ffffff;stroke:#ffffff;stroke-width:0.0938" />
      <path
         id="path2710"
         d="m 251.284,242.072 c 2.3,0 4.6,0 6.8,0 -0.1,13 0.1,26 0,38.9 -2.3,0.1 -4.5,0.1 -6.7,0.199 -0.2,-13 0,-26.099 -0.1,-39.099 z"
         inkscape:connector-curvature="0"
         style="fill:#010101;stroke:#010101;stroke-width:0.0938" />
      <path
         id="path2712"
         d="m 65.584,270.572 c 2.2,0 4.5,0 6.8,0 -0.1,3.5 -0.1,6.9 0.2,10.3 -2.4,0.2 -4.8,0.2 -7.1,0.3 0.1,-3.501 0.1,-7.1 0.1,-10.6 z"
         inkscape:connector-curvature="0"
         style="fill:#010101;stroke:#010101;stroke-width:0.0938" />
    </g>
  </g>
</svg>
