<svg width="21" height="20" viewBox="0 0 21 20" fill="none" xmlns="http://www.w3.org/2000/svg">
<g clip-path="url(#clip0_33_21)">
<path d="M17.4308 3.64152C16.1342 3.04632 14.7658 2.62189 13.3599 2.37886C13.3471 2.37647 13.334 2.37818 13.3222 2.38373C13.3105 2.38928 13.3008 2.39839 13.2945 2.40977C13.1187 2.72252 12.9239 3.13044 12.7876 3.45102C11.2503 3.22086 9.72092 3.22086 8.21525 3.45102C8.07892 3.12327 7.87709 2.72252 7.7005 2.40977C7.69396 2.39865 7.68422 2.38976 7.67255 2.38426C7.66088 2.37876 7.64783 2.37691 7.63509 2.37894C6.22907 2.62141 4.86058 3.04581 3.56409 3.64144C3.553 3.64618 3.54365 3.65424 3.53734 3.66452C0.944503 7.53819 0.23417 11.3166 0.58267 15.0482C0.583655 15.0573 0.586464 15.0662 0.59093 15.0742C0.595396 15.0822 0.601429 15.0893 0.60867 15.0949C2.31934 16.3513 3.97642 17.1139 5.60275 17.6194C5.6154 17.6232 5.6289 17.623 5.64144 17.6189C5.65398 17.6148 5.66496 17.607 5.67292 17.5964C6.05759 17.0711 6.4005 16.5171 6.69459 15.9346C6.69863 15.9266 6.70094 15.9179 6.70136 15.909C6.70178 15.9 6.7003 15.8911 6.69703 15.8828C6.69375 15.8745 6.68875 15.8669 6.68236 15.8607C6.67596 15.8544 6.66831 15.8496 6.65992 15.8465C6.11592 15.6402 5.598 15.3886 5.09975 15.1029C5.09067 15.0976 5.08304 15.0901 5.07753 15.0811C5.07203 15.0721 5.06882 15.0619 5.06819 15.0514C5.06757 15.0409 5.06954 15.0304 5.07394 15.0208C5.07834 15.0112 5.08503 15.0029 5.09342 14.9965C5.19825 14.9179 5.30317 14.8363 5.40325 14.7537C5.41215 14.7464 5.42292 14.7416 5.43434 14.7401C5.44577 14.7386 5.4574 14.7402 5.46792 14.7449C8.74109 16.2394 12.2846 16.2394 15.5191 14.7449C15.5296 14.7399 15.5414 14.738 15.5529 14.7394C15.5645 14.7408 15.5755 14.7455 15.5845 14.7529C15.6847 14.8354 15.7895 14.9179 15.8952 14.9965C15.9036 15.0028 15.9103 15.0111 15.9148 15.0206C15.9192 15.0302 15.9213 15.0406 15.9207 15.0512C15.9202 15.0617 15.9171 15.0719 15.9117 15.0809C15.9062 15.0899 15.8987 15.0974 15.8897 15.1029C15.3912 15.394 14.8691 15.6425 14.3288 15.8457C14.3204 15.8489 14.3128 15.8538 14.3065 15.8602C14.3001 15.8665 14.2952 15.8742 14.292 15.8826C14.2888 15.891 14.2874 15.8999 14.2879 15.9089C14.2884 15.9179 14.2908 15.9266 14.2949 15.9346C14.5953 16.5163 14.9382 17.0703 15.3158 17.5956C15.3235 17.6064 15.3344 17.6146 15.347 17.6189C15.3596 17.6231 15.3732 17.6233 15.3859 17.6194C17.0201 17.1139 18.6772 16.3512 20.3878 15.0949C20.3952 15.0896 20.4013 15.0827 20.4058 15.0747C20.4103 15.0668 20.4131 15.058 20.4139 15.0489C20.8309 10.7348 19.7154 6.98735 17.4568 3.66527C17.4513 3.65448 17.4421 3.64603 17.4308 3.64144V3.64152ZM7.18334 12.776C6.19792 12.776 5.38592 11.8713 5.38592 10.7602C5.38592 9.64919 6.18217 8.74444 7.18342 8.74444C8.19242 8.74444 8.9965 9.6571 8.98075 10.7603C8.98075 11.8713 8.1845 12.776 7.18334 12.776V12.776ZM13.829 12.776C12.8436 12.776 12.0316 11.8713 12.0316 10.7602C12.0316 9.64919 12.8278 8.74444 13.829 8.74444C14.838 8.74444 15.6421 9.6571 15.6263 10.7603C15.6263 11.8713 14.838 12.776 13.829 12.776V12.776Z" fill="white"/>
</g>
<defs>
<clipPath id="clip0_33_21">
<rect width="20" height="20" fill="white" transform="translate(0.5)"/>
</clipPath>
</defs>
</svg>
