<svg width="20" height="20" viewBox="0 0 20 20" fill="none" xmlns="http://www.w3.org/2000/svg">
<g clip-path="url(#clip0_62_21)">
<path d="M10 0.247498C4.475 0.247498 0 4.725 0 10.2475C0 14.6667 2.865 18.4142 6.8375 19.735C7.3375 19.8292 7.52083 19.52 7.52083 19.2542C7.52083 19.0167 7.5125 18.3875 7.50833 17.5542C4.72667 18.1575 4.14 16.2125 4.14 16.2125C3.685 15.0583 3.0275 14.75 3.0275 14.75C2.12167 14.13 3.0975 14.1425 3.0975 14.1425C4.10167 14.2125 4.62917 15.1725 4.62917 15.1725C5.52083 16.7017 6.97 16.26 7.54167 16.0042C7.63167 15.3575 7.88917 14.9167 8.175 14.6667C5.95417 14.4167 3.62 13.5567 3.62 9.725C3.62 8.63333 4.0075 7.74166 4.64917 7.04166C4.53667 6.78916 4.19917 5.7725 4.73667 4.395C4.73667 4.395 5.57417 4.12666 7.48667 5.42C8.28667 5.1975 9.13667 5.0875 9.98667 5.0825C10.8367 5.0875 11.6867 5.1975 12.4867 5.42C14.3867 4.12666 15.2242 4.395 15.2242 4.395C15.7617 5.7725 15.4242 6.78916 15.3242 7.04166C15.9617 7.74166 16.3492 8.63333 16.3492 9.725C16.3492 13.5667 14.0117 14.4125 11.7867 14.6583C12.1367 14.9583 12.4617 15.5717 12.4617 16.5083C12.4617 17.8467 12.4492 18.9217 12.4492 19.2467C12.4492 19.5092 12.6242 19.8217 13.1367 19.7217C17.1375 18.41 20 14.66 20 10.2475C20 4.725 15.5225 0.247498 10 0.247498" fill="white"/>
</g>
<defs>
<clipPath id="clip0_62_21">
<rect width="20" height="20" fill="white"/>
</clipPath>
</defs>
</svg>
