<svg width="1024" height="1024" viewBox="0 0 1024 1024" fill="none" xmlns="http://www.w3.org/2000/svg">
<rect width="1024" height="1024" fill="black"/>
<path fill-rule="evenodd" clip-rule="evenodd" d="M388.966 727.411L512.073 463.407L635.034 727.098C649.011 757.071 684.639 770.038 714.612 756.062C744.585 742.085 757.552 706.457 743.576 676.484L566.427 296.589C552.451 266.616 516.823 253.648 486.85 267.625C480.257 270.699 474.488 274.82 469.646 279.698C464.768 284.54 460.647 290.31 457.572 296.902L280.424 676.798C266.448 706.77 279.415 742.399 309.388 756.375C339.361 770.352 374.989 757.384 388.966 727.411ZM477.554 637.003C472.802 643.789 474.452 653.142 481.238 657.894C487.44 662.237 495.788 661.232 500.806 655.845V691.048H493.96C485.676 691.048 478.96 697.764 478.96 706.048C478.96 714.333 485.676 721.048 493.96 721.048H535.095C543.38 721.048 550.095 714.333 550.095 706.048C550.095 697.764 543.38 691.048 535.095 691.048H530.806V616.286C530.806 612.804 529.619 609.599 527.629 607.053C526.637 604.148 524.747 601.519 522.039 599.623C515.253 594.871 505.9 596.521 501.148 603.307L477.554 637.003Z" fill="white"/>
</svg>
