<svg width="21" height="20" viewBox="0 0 21 20" fill="none" xmlns="http://www.w3.org/2000/svg">
<g clip-path="url(#clip0_33_25)">
<path d="M1.02667 0.458333V19.5417H2.4V20H0.5V0H2.4V0.458333H1.02667ZM6.89583 6.50833V7.4725H6.92333C7.18083 7.10333 7.4925 6.81917 7.85417 6.61917C8.215 6.415 8.63417 6.315 9.10417 6.315C9.55417 6.315 9.965 6.40417 10.3383 6.57667C10.7117 6.75 10.9925 7.06167 11.1883 7.5C11.4 7.18833 11.6883 6.91167 12.05 6.67333C12.4117 6.43417 12.8417 6.315 13.3383 6.315C13.7158 6.315 14.065 6.36167 14.3883 6.45417C14.7117 6.54583 14.985 6.6925 15.2158 6.89583C15.4458 7.1 15.6233 7.36167 15.7542 7.68833C15.8808 8.015 15.9458 8.4075 15.9458 8.86917V13.6425H13.9883V9.6C13.9883 9.36167 13.98 9.13417 13.9617 8.92333C13.9482 8.73194 13.8973 8.54505 13.8117 8.37333C13.7285 8.21631 13.6018 8.08666 13.4467 8C13.285 7.90833 13.0658 7.86167 12.7925 7.86167C12.5158 7.86167 12.2925 7.915 12.1233 8.01917C11.9568 8.12153 11.8192 8.26465 11.7233 8.435C11.623 8.61439 11.5577 8.81121 11.5308 9.015C11.4987 9.2316 11.482 9.4502 11.4808 9.66917V13.6425H9.5225V9.6425C9.5225 9.43083 9.51917 9.22333 9.5075 9.01583C9.50068 8.81934 9.46038 8.62544 9.38833 8.4425C9.32036 8.26967 9.19927 8.1229 9.0425 8.02333C8.88083 7.91917 8.64583 7.865 8.33083 7.865C8.23833 7.865 8.115 7.885 7.965 7.92667C7.815 7.96917 7.665 8.04583 7.52333 8.16167C7.38083 8.27667 7.2575 8.4425 7.1575 8.6575C7.0575 8.87333 7.0075 9.1575 7.0075 9.5075V13.6458H5.05V6.50833H6.89583ZM19.9733 19.5417V0.458333H18.6V0H20.5V20H18.6V19.5417H19.9733Z" fill="white"/>
</g>
<defs>
<clipPath id="clip0_33_25">
<rect width="20" height="20" fill="white" transform="translate(0.5)"/>
</clipPath>
</defs>
</svg>
