<svg width="21" height="20" viewBox="0 0 21 20" fill="none" xmlns="http://www.w3.org/2000/svg">
<g clip-path="url(#clip0_33_23)">
<path d="M10.5 0C5 0 0.5 4.5 0.5 10C0.5 15.5 5 20 10.5 20C16 20 20.5 15.5 20.5 10C20.5 4.5 16.05 0 10.5 0ZM15.1008 14.45C14.9008 14.7492 14.5508 14.85 14.25 14.65C11.9 13.2 8.95 12.8992 5.44917 13.6992C5.10083 13.8008 4.8 13.55 4.7 13.25C4.6 12.8992 4.85 12.6 5.15 12.5C8.95 11.6492 12.25 12 14.85 13.6C15.2 13.75 15.2492 14.1492 15.1008 14.45V14.45ZM16.3008 11.7C16.05 12.05 15.6 12.2 15.2492 11.95C12.55 10.3 8.45 9.8 5.3 10.8C4.90083 10.9 4.45 10.7 4.35 10.3C4.25 9.9 4.45 9.44917 4.85 9.34917C8.5 8.25 13 8.80083 16.1 10.7C16.4008 10.8508 16.55 11.35 16.3008 11.7V11.7ZM16.4008 8.9C13.2 7 7.85 6.8 4.8 7.75083C4.3 7.9 3.8 7.6 3.65 7.15C3.5 6.64917 3.8 6.15 4.25 5.99917C7.8 4.94917 13.65 5.14917 17.3508 7.35C17.8 7.6 17.95 8.2 17.7 8.65C17.4508 9.00083 16.85 9.14917 16.4008 8.9V8.9Z" fill="white"/>
</g>
<defs>
<clipPath id="clip0_33_23">
<rect width="20" height="20" fill="white" transform="translate(0.5)"/>
</clipPath>
</defs>
</svg>
