<svg width="20" height="20" viewBox="0 0 20 20" fill="none" xmlns="http://www.w3.org/2000/svg">
<path d="M19.9608 3.80834C19.2121 4.13801 18.4188 4.35562 17.6067 4.45417C18.4618 3.94022 19.102 3.13421 19.4092 2.18501C18.6167 2.64751 17.7383 2.98417 16.8033 3.17167C16.1865 2.51203 15.3691 2.07452 14.478 1.92709C13.587 1.77966 12.6722 1.93055 11.8758 2.35633C11.0793 2.78212 10.4457 3.45897 10.0734 4.28178C9.70104 5.10459 9.6108 6.02731 9.81667 6.90667C6.40833 6.74584 3.38917 5.10834 1.36667 2.63501C0.998995 3.25985 0.80722 3.97253 0.811667 4.69751C0.811667 6.12251 1.53667 7.37501 2.635 8.11084C1.98405 8.09012 1.34748 7.91412 0.778333 7.59751V7.64751C0.777964 8.5945 1.10522 9.51246 1.70459 10.2456C2.30395 10.9788 3.13851 11.4821 4.06667 11.67C3.46525 11.8312 2.83534 11.8554 2.22333 11.7408C2.48677 12.5558 2.99805 13.2683 3.68585 13.7788C4.37364 14.2892 5.20363 14.5722 6.06 14.5883C4.60961 15.7266 2.81873 16.3444 0.975 16.3425C0.65 16.3425 0.325833 16.3233 0 16.2867C1.87976 17.4903 4.06543 18.1292 6.2975 18.1275C13.8417 18.1275 17.9625 11.8808 17.9625 6.47334C17.9625 6.29834 17.9625 6.12334 17.95 5.94834C18.755 5.36906 19.4494 4.64986 20 3.82501L19.9608 3.80834Z" fill="white"/>
</svg>
