<svg width="20" height="20" viewBox="0 0 20 20" fill="none" xmlns="http://www.w3.org/2000/svg">
<g clip-path="url(#clip0_62_19)">
<path d="M10 0C7.34783 0 4.8043 1.05357 2.92893 2.92893C1.05357 4.8043 0 7.34783 0 10C0 12.6522 1.05357 15.1957 2.92893 17.0711C4.8043 18.9464 7.34783 20 10 20C12.6522 20 15.1957 18.9464 17.0711 17.0711C18.9464 15.1957 20 12.6522 20 10C20 7.34783 18.9464 4.8043 17.0711 2.92893C15.1957 1.05357 12.6522 0 10 0V0ZM14.175 3.95333C14.7483 3.95333 15.2167 4.42083 15.2167 4.99417C15.2138 5.26444 15.1059 5.52301 14.9159 5.71525C14.7259 5.90749 14.4686 6.01835 14.1984 6.0244C13.9282 6.03046 13.6662 5.93125 13.4678 5.74771C13.2693 5.56418 13.15 5.31071 13.135 5.04083L10.9708 4.585L10.3042 7.7075C11.8242 7.76583 13.2042 8.23417 14.1992 8.9475C14.4558 8.69 14.8075 8.53833 15.205 8.53833C16.0117 8.53833 16.6667 9.19333 16.6667 10C16.6667 10.5967 16.3042 11.1108 15.825 11.345C15.8488 11.4882 15.8605 11.6332 15.86 11.7783C15.86 14.0233 13.2517 15.8367 10.0233 15.8367C6.795 15.8367 4.18667 14.0233 4.18667 11.7783C4.18667 11.6258 4.19917 11.4733 4.2225 11.3333C3.96452 11.2189 3.74536 11.0319 3.59165 10.7952C3.43794 10.5585 3.3563 10.2822 3.35667 10C3.35667 9.19333 4.01167 8.53833 4.81833 8.53833C5.20417 8.53833 5.56667 8.70167 5.82417 8.94667C6.83 8.21083 8.2225 7.755 9.7775 7.7075L10.515 4.2225C10.5326 4.1554 10.5741 4.09703 10.6317 4.05833C10.6915 4.02349 10.7618 4.01108 10.83 4.02333L13.2517 4.5375C13.3335 4.36196 13.464 4.2136 13.6277 4.11005C13.7914 4.0065 13.9813 3.9521 14.175 3.95333V3.95333ZM7.70833 10C7.13417 10 6.66667 10.4683 6.66667 11.0417C6.66667 11.6142 7.13417 12.0817 7.70833 12.0817C8.28083 12.0817 8.74833 11.6142 8.74833 11.0408C8.74833 10.4675 8.28083 10 7.7075 10H7.70833ZM12.2917 10C11.7192 10 11.2517 10.4675 11.2517 11.0417C11.2517 11.6142 11.7192 12.0817 12.2925 12.0817C12.8658 12.0817 13.3333 11.6142 13.3333 11.0408C13.3333 10.4683 12.865 10 12.2917 10V10ZM7.73667 13.325C7.66467 13.3247 7.59547 13.3528 7.54417 13.4033C7.49353 13.4548 7.46515 13.5241 7.46515 13.5962C7.46515 13.6684 7.49353 13.7377 7.54417 13.7892C8.24583 14.4908 9.61417 14.55 10.0117 14.55C10.4092 14.55 11.7658 14.5033 12.4792 13.7892C12.5279 13.7379 12.557 13.6712 12.5614 13.6006C12.5658 13.5301 12.5453 13.4602 12.5033 13.4033C12.4519 13.3524 12.3824 13.3239 12.31 13.3239C12.2376 13.3239 12.1681 13.3524 12.1167 13.4033C11.6608 13.8475 10.7133 14.0117 10.0233 14.0117C9.33333 14.0117 8.37417 13.8483 7.93 13.4033C7.90459 13.378 7.87443 13.358 7.84125 13.3444C7.80807 13.3308 7.77252 13.324 7.73667 13.3242V13.325Z" fill="white"/>
</g>
<defs>
<clipPath id="clip0_62_19">
<rect width="20" height="20" fill="white"/>
</clipPath>
</defs>
</svg>
