<svg width="1024" height="1024" viewBox="0 0 1024 1024" fill="none" xmlns="http://www.w3.org/2000/svg">
<rect width="1024" height="1024" fill="#1D9BF0"/>
<mask id="path-1-outside-1_2400_35" maskUnits="userSpaceOnUse" x="175.858" y="267.819" width="672" height="489" fill="black">
<rect fill="white" x="175.858" y="267.819" width="672" height="489"/>
<path fill-rule="evenodd" clip-rule="evenodd" d="M715.361 666.181C715.361 693.795 692.975 716.181 665.361 716.181H601.637C596.544 716.181 592.331 712.329 591.213 707.36C583.019 670.909 550.454 643.678 511.529 643.678C472.604 643.678 440.039 670.909 431.845 707.36C430.728 712.329 426.514 716.181 421.421 716.181H357C329.386 716.181 307 693.795 307 666.181V601.971C307 596.916 302.586 593.024 297.531 593.024V593.024C252.424 593.024 215.858 556.458 215.858 511.352C215.858 466.246 252.424 429.68 297.531 429.68V429.68C302.586 429.68 307 425.788 307 420.733V357.819C307 330.205 329.386 307.819 357 307.819H665.361C692.975 307.819 715.361 330.205 715.361 357.819V420.114C715.361 425.528 720.114 429.68 725.528 429.68V429.68C770.634 429.68 807.2 466.246 807.2 511.352C807.2 556.458 770.634 593.024 725.528 593.024V593.024C720.114 593.024 715.361 597.177 715.361 602.59V666.181Z"/>
</mask>
<path fill-rule="evenodd" clip-rule="evenodd" d="M715.361 666.181C715.361 693.795 692.975 716.181 665.361 716.181H601.637C596.544 716.181 592.331 712.329 591.213 707.36C583.019 670.909 550.454 643.678 511.529 643.678C472.604 643.678 440.039 670.909 431.845 707.36C430.728 712.329 426.514 716.181 421.421 716.181H357C329.386 716.181 307 693.795 307 666.181V601.971C307 596.916 302.586 593.024 297.531 593.024V593.024C252.424 593.024 215.858 556.458 215.858 511.352C215.858 466.246 252.424 429.68 297.531 429.68V429.68C302.586 429.68 307 425.788 307 420.733V357.819C307 330.205 329.386 307.819 357 307.819H665.361C692.975 307.819 715.361 330.205 715.361 357.819V420.114C715.361 425.528 720.114 429.68 725.528 429.68V429.68C770.634 429.68 807.2 466.246 807.2 511.352C807.2 556.458 770.634 593.024 725.528 593.024V593.024C720.114 593.024 715.361 597.177 715.361 602.59V666.181Z" fill="#1D9BF0"/>
<path fill-rule="evenodd" clip-rule="evenodd" d="M715.361 666.181C715.361 693.795 692.975 716.181 665.361 716.181H601.637C596.544 716.181 592.331 712.329 591.213 707.36C583.019 670.909 550.454 643.678 511.529 643.678C472.604 643.678 440.039 670.909 431.845 707.36C430.728 712.329 426.514 716.181 421.421 716.181H357C329.386 716.181 307 693.795 307 666.181V601.971C307 596.916 302.586 593.024 297.531 593.024V593.024C252.424 593.024 215.858 556.458 215.858 511.352C215.858 466.246 252.424 429.68 297.531 429.68V429.68C302.586 429.68 307 425.788 307 420.733V357.819C307 330.205 329.386 307.819 357 307.819H665.361C692.975 307.819 715.361 330.205 715.361 357.819V420.114C715.361 425.528 720.114 429.68 725.528 429.68V429.68C770.634 429.68 807.2 466.246 807.2 511.352C807.2 556.458 770.634 593.024 725.528 593.024V593.024C720.114 593.024 715.361 597.177 715.361 602.59V666.181Z" fill="url(#paint0_radial_2400_35)" fill-opacity="0.15"/>
<path fill-rule="evenodd" clip-rule="evenodd" d="M715.361 666.181C715.361 693.795 692.975 716.181 665.361 716.181H601.637C596.544 716.181 592.331 712.329 591.213 707.36C583.019 670.909 550.454 643.678 511.529 643.678C472.604 643.678 440.039 670.909 431.845 707.36C430.728 712.329 426.514 716.181 421.421 716.181H357C329.386 716.181 307 693.795 307 666.181V601.971C307 596.916 302.586 593.024 297.531 593.024V593.024C252.424 593.024 215.858 556.458 215.858 511.352C215.858 466.246 252.424 429.68 297.531 429.68V429.68C302.586 429.68 307 425.788 307 420.733V357.819C307 330.205 329.386 307.819 357 307.819H665.361C692.975 307.819 715.361 330.205 715.361 357.819V420.114C715.361 425.528 720.114 429.68 725.528 429.68V429.68C770.634 429.68 807.2 466.246 807.2 511.352C807.2 556.458 770.634 593.024 725.528 593.024V593.024C720.114 593.024 715.361 597.177 715.361 602.59V666.181Z" fill="url(#paint1_radial_2400_35)" fill-opacity="0.3"/>
<path fill-rule="evenodd" clip-rule="evenodd" d="M715.361 666.181C715.361 693.795 692.975 716.181 665.361 716.181H601.637C596.544 716.181 592.331 712.329 591.213 707.36C583.019 670.909 550.454 643.678 511.529 643.678C472.604 643.678 440.039 670.909 431.845 707.36C430.728 712.329 426.514 716.181 421.421 716.181H357C329.386 716.181 307 693.795 307 666.181V601.971C307 596.916 302.586 593.024 297.531 593.024V593.024C252.424 593.024 215.858 556.458 215.858 511.352C215.858 466.246 252.424 429.68 297.531 429.68V429.68C302.586 429.68 307 425.788 307 420.733V357.819C307 330.205 329.386 307.819 357 307.819H665.361C692.975 307.819 715.361 330.205 715.361 357.819V420.114C715.361 425.528 720.114 429.68 725.528 429.68V429.68C770.634 429.68 807.2 466.246 807.2 511.352C807.2 556.458 770.634 593.024 725.528 593.024V593.024C720.114 593.024 715.361 597.177 715.361 602.59V666.181Z" fill="url(#paint2_radial_2400_35)" fill-opacity="0.4"/>
<path d="M431.845 707.36L470.871 716.133L431.845 707.36ZM591.213 707.36L552.187 716.133L591.213 707.36ZM665.361 756.181C715.067 756.181 755.361 715.886 755.361 666.181H675.361C675.361 671.704 670.884 676.181 665.361 676.181V756.181ZM601.637 756.181H665.361V676.181H601.637V756.181ZM630.239 698.586C618.03 644.276 569.568 603.678 511.529 603.678V683.678C531.34 683.678 548.008 697.542 552.187 716.133L630.239 698.586ZM511.529 603.678C453.49 603.678 405.028 644.276 392.819 698.586L470.871 716.133C475.05 697.542 491.718 683.678 511.529 683.678V603.678ZM357 756.181H421.421V676.181H357V756.181ZM267 666.181C267 715.886 307.294 756.181 357 756.181V676.181C351.477 676.181 347 671.704 347 666.181H267ZM267 601.971V666.181H347V601.971H267ZM175.858 511.352C175.858 578.55 230.333 633.024 297.531 633.024V553.024C274.516 553.024 255.858 534.367 255.858 511.352H175.858ZM297.531 389.68C230.333 389.68 175.858 444.154 175.858 511.352H255.858C255.858 488.337 274.516 469.68 297.531 469.68V389.68ZM267 357.819V420.733H347V357.819H267ZM357 267.819C307.294 267.819 267 308.114 267 357.819H347C347 352.296 351.477 347.819 357 347.819V267.819ZM665.361 267.819H357V347.819H665.361V267.819ZM755.361 357.819C755.361 308.114 715.067 267.819 665.361 267.819V347.819C670.884 347.819 675.361 352.296 675.361 357.819H755.361ZM755.361 420.114V357.819H675.361V420.114H755.361ZM847.2 511.352C847.2 444.154 792.726 389.68 725.528 389.68V469.68C748.543 469.68 767.2 488.337 767.2 511.352H847.2ZM725.528 633.024C792.725 633.024 847.2 578.55 847.2 511.352H767.2C767.2 534.367 748.543 553.024 725.528 553.024V633.024ZM755.361 666.181V602.59H675.361V666.181H755.361ZM725.528 553.024C701.251 553.024 675.361 571.989 675.361 602.59H755.361C755.361 622.364 738.977 633.024 725.528 633.024V553.024ZM675.361 420.114C675.361 450.715 701.251 469.68 725.528 469.68V389.68C738.977 389.68 755.361 400.341 755.361 420.114H675.361ZM297.531 469.68C321.674 469.68 347 450.768 347 420.733H267C267 400.808 283.498 389.68 297.531 389.68V469.68ZM392.819 698.586C395.211 687.944 405.221 676.181 421.421 676.181V756.181C447.807 756.181 466.244 736.714 470.871 716.133L392.819 698.586ZM347 601.971C347 571.936 321.674 553.024 297.531 553.024V633.024C283.498 633.024 267 621.896 267 601.971H347ZM601.637 676.181C617.837 676.181 627.847 687.944 630.239 698.586L552.187 716.133C556.814 736.714 575.251 756.181 601.637 756.181V676.181Z" fill="#1D547A" mask="url(#path-1-outside-1_2400_35)"/>
<defs>
<radialGradient id="paint0_radial_2400_35" cx="0" cy="0" r="1" gradientUnits="userSpaceOnUse" gradientTransform="translate(307 512.447) scale(241.992 198.147)">
<stop stop-color="#FF4500"/>
<stop offset="1" stop-color="#FF4500" stop-opacity="0"/>
</radialGradient>
<radialGradient id="paint1_radial_2400_35" cx="0" cy="0" r="1" gradientUnits="userSpaceOnUse" gradientTransform="translate(512 660.229) rotate(-90) scale(148.472 254.929)">
<stop stop-color="#1778F2"/>
<stop offset="1" stop-color="#1778F2" stop-opacity="0"/>
</radialGradient>
<radialGradient id="paint2_radial_2400_35" cx="0" cy="0" r="1" gradientUnits="userSpaceOnUse" gradientTransform="translate(790.984 512.447) rotate(180) scale(241.992 198.147)">
<stop stop-color="#4F4FFF"/>
<stop offset="1" stop-color="#4F4FFF" stop-opacity="0"/>
</radialGradient>
</defs>
</svg>
